PathFileType	3	(X/Y/Z)	D:\VICON_DB\Goncalves\Pilot01\09-03-2026\bw_sq_140_02.trc
DataRate	CameraRate	NumFrames	NumMarkers	Units	OrigDataRate	OrigDataStartFrame	OrigNumFrames
200.0	200.0	6	34	mm	200.0	528	703	
Frame#	Time	LASI			RASI			LPSI			RPSI			LTHI			LTHAP			LTHAD			LKNE			LKNM			LTIB			LTIAP			LTIAD			LANK			LMED			LHEE			LTOE			LFMH			LSMH			LVMH			RTHI			RTHAP			RTHAD			RKNE			RKNM			RTIB			RTIAP			RTIAD			RANK			RMED			RHEE			RTOE			RFMH			RSMH			RVMH			
		X1	Y1	Z1	X2	Y2	Z2	X3	Y3	Z3	X4	Y4	Z4	X5	Y5	Z5	X6	Y6	Z6	X7	Y7	Z7	X8	Y8	Z8	X9	Y9	Z9	X10	Y10	Z10	X11	Y11	Z11	X12	Y12	Z12	X13	Y13	Z13	X14	Y14	Z14	X15	Y15	Z15	X16	Y16	Z16	X17	Y17	Z17	X18	Y18	Z18	X19	Y19	Z19	X20	Y20	Z20	X21	Y21	Z21	X22	Y22	Z22	X23	Y23	Z23	X24	Y24	Z24	X25	Y25	Z25	X26	Y26	Z26	X27	Y27	Z27	X28	Y28	Z28	X29	Y29	Z29	X30	Y30	Z30	X31	Y31	Z31	X32	Y32	Z32	X33	Y33	Z33	X34	Y34	Z34	
528	2.635	112.32426	847.35779	-1094.15	100.87154	854.85956	-1355.1448				295.28162	915.77692	-1261.9105	129.77544	688.71411	-1006.7639	152.89432	747.78662	-1024.9813	168.96658	633.83191	-960.77692	175.18326	474.70688	-925.77539				230.56352	289.4393	-873.76947	144.44571	351.48398	-906.12415	184.36731	258.84396	-864.9187	263.24487	80.214951	-846.49707				275.31021	61.920048	-912.51953	183.86823	73.343895	-822.07019	123.96798	44.128632	-815.74591				172.54446	25.693007	-750.56036	152.87378	636.60583	-1487.1473	119.12732	744.54828	-1417.4923	93.646095	665.02441	-1439.2985	169.47754	493.12668	-1508.9478				210.51152	305.52057	-1564.3947	140.59508	342.89734	-1533.3981	157.46584	263.40002	-1549.0035	262.7597	65.289124	-1570.0276				272.43823	59.8204	-1517.0442	177.63731	70.854073	-1608.6909	120.91877	50.382885	-1611.6555				168.41508	19.966549	-1668.4287
529	2.64	110.70783	848.5835	-1093.9429	99.629166	855.94519	-1354.9966				294.05432	916.63599	-1261.6077	128.70638	688.68744	-1007.1261	151.33447	748.2475	-1024.9595	168.34674	633.84943	-961.43927	175.97037	474.62854	-927.25867				231.26468	289.51465	-874.7196	145.42781	351.5899	-907.55951	184.94138	259.077	-865.82678	263.37863	80.283463	-846.59326				275.40799	61.805904	-912.56506	183.89525	73.340225	-822.07953	123.98243	44.126064	-815.72754				172.5556	25.674513	-750.53992	152.98598	636.68695	-1486.1527	118.32778	744.85382	-1417.0601	93.444077	664.87146	-1438.5668	170.93242	493.22922	-1507.2493				211.80737	305.79257	-1563.2153	142.17188	343.25974	-1531.8533	158.58542	263.82816	-1547.9314	262.89377	65.265274	-1569.9182				272.58685	59.702568	-1517.0203	177.70811	70.868507	-1608.718	120.95144	50.401081	-1611.6934				168.44188	19.919834	-1668.4573
530	2.645	109.09479	849.72418	-1093.7494	98.407112	856.94763	-1354.8678				292.84308	917.41254	-1261.2937	127.64851	688.633	-1007.4604	149.77724	748.66577	-1024.9272	167.74425	633.84271	-962.073	176.76776	474.54147	-928.69482				231.96342	289.58102	-875.63885	146.40617	351.68945	-908.94592	185.51492	259.30042	-866.70325	263.51245	80.3489	-846.68231				275.50513	61.694118	-912.60443	183.92471	73.335045	-822.08173	123.99787	44.125347	-815.7038				172.56799	25.653061	-750.51477	153.14081	636.7243	-1485.1687	117.55792	745.11469	-1416.6637	93.2668	664.68933	-1437.8873	172.39917	493.30154	-1505.5573				213.10506	306.04868	-1562.0444	143.74615	343.60187	-1530.3268	159.70674	264.24088	-1546.8707	263.02725	65.239525	-1569.8059				272.73257	59.582561	-1516.9943	177.78192	70.88134	-1608.7487	120.98706	50.418716	-1611.7369				168.47336	19.867493	-1668.488
531	2.65	107.48757	850.78143	-1093.5699	97.205948	857.86926	-1354.7585				291.64862	918.10864	-1260.9689	126.6046	688.55188	-1007.767	148.22704	749.04126	-1024.8846	167.16092	633.81305	-962.6781	177.57574	474.44641	-930.08392				232.6601	289.63843	-876.52832	147.38089	351.78271	-910.28406	186.08813	259.51434	-867.54895	263.64627	80.410149	-846.76538				275.60135	61.583988	-912.63892	183.95654	73.328369	-822.07764	124.01438	44.126442	-815.67517				172.5815	25.629007	-750.48529	153.33583	636.71796	-1484.1925	116.8156	745.33307	-1416.3033	93.111885	664.479	-1437.2588	173.87509	493.34357	-1503.8695				214.40279	306.28873	-1560.879	145.31573	343.92374	-1528.8157	160.82788	264.63788	-1545.8193	263.15903	65.212021	-1569.6895				272.87411	59.459999	-1516.9641	177.85745	70.892967	-1608.7819	121.02505	50.435486	-1611.7848				168.50911	19.810297	-1668.5206
532	2.655	105.88858	851.75708	-1093.405	96.026283	858.71198	-1354.6677				290.4718	918.72675	-1260.6339	125.5773	688.44537	-1008.0455	146.68829	749.37445	-1024.8309	166.59853	633.76202	-963.25439	178.39456	474.34393	-931.4259				233.35498	289.68701	-877.38928	148.3519	351.86966	-911.57465	186.66101	259.71896	-868.36438	263.77988	80.466148	-846.84375				275.69635	61.474808	-912.66937	183.99054	73.320312	-822.06793	124.03205	44.129257	-815.64215				172.59599	25.60276	-750.45215	153.56783	636.6684	-1483.2214	116.09856	745.51086	-1415.9786	92.976753	664.24115	-1436.6798	175.35736	493.35541	-1502.1851				215.69904	306.51266	-1559.7168	146.87889	344.22556	-1527.318	161.94699	265.01932	-1544.7758	263.2879	65.182968	-1569.5684				273.01016	59.334351	-1516.9272	177.93355	70.90387	-1608.8163	121.06484	50.451115	-1611.8364				168.54851	19.74929	-1668.5542
533	2.66	104.30019	852.65381	-1093.2537	94.868774	859.47797	-1354.5946				289.31311	919.26917	-1260.2894	124.56899	688.31506	-1008.2958	145.16524	749.66602	-1024.7656	166.05884	633.69098	-963.80206	179.22427	474.23486	-932.72125				234.04829	289.7269	-878.22296	149.31903	351.95044	-912.81885	187.2336	259.91458	-869.15057	263.91324	80.516037	-846.91858				275.78958	61.365932	-912.69708	184.02644	73.311089	-822.05347	124.05097	44.133675	-815.60522				172.61142	25.574751	-750.41589	153.83304	636.57513	-1482.2524	115.40452	745.64923	-1415.6876	92.858635	663.9754	-1436.1473	176.84299	493.33759	-1500.504				216.99263	306.72046	-1558.556	148.43422	344.50757	-1525.8317	163.06256	265.38535	-1543.7386	263.4129	65.152695	-1569.4414				273.13953	59.204983	-1516.8812	178.00912	70.914505	-1608.8506	121.10583	50.465347	-1611.8905				168.59081	19.685818	-1668.5886
